<?xml version="1.0" standalone="no"?>
<!DOCTYPE svg PUBLIC "-//W3C//DTD SVG 20010904//EN"
 "http://www.w3.org/TR/2001/REC-SVG-20010904/DTD/svg10.dtd">
<svg version="1.0" xmlns="http://www.w3.org/2000/svg"
 width="326.000000pt" height="326.000000pt" viewBox="0 0 326.000000 326.000000"
 preserveAspectRatio="xMidYMid meet">
<metadata>
Created by potrace 1.11, written by Peter Selinger 2001-2013
</metadata>
<g transform="translate(0.000000,326.000000) scale(0.100000,-0.100000)"
fill="#000000" stroke="none">
<path d="M2767 2314 c-8 -16 -24 -38 -36 -48 -11 -10 -18 -23 -15 -27 3 -5 1
-9 -4 -9 -4 0 -18 -23 -30 -51 -19 -42 -30 -54 -68 -70 -25 -12 -52 -18 -60
-15 -8 3 -13 2 -10 -3 4 -5 -17 -11 -44 -13 -28 -1 -50 -1 -50 2 0 3 -12 6
-27 6 -44 2 -70 9 -86 22 -8 7 -22 10 -31 6 -9 -3 -16 -1 -16 5 0 6 -9 11 -20
11 -11 0 -20 -4 -20 -8 0 -11 69 -72 81 -72 5 0 9 -5 9 -11 0 -5 4 -8 9 -4 5
3 13 0 16 -6 5 -8 -15 -9 -71 -3 -44 4 -85 7 -91 7 -7 0 -13 5 -13 11 0 6 -5
4 -10 -4 -8 -12 -10 -12 -10 -1 0 11 -3 11 -17 0 -11 -10 -14 -10 -9 -1 5 8 0
12 -16 12 -13 0 -30 6 -37 13 -11 10 -13 10 -7 0 4 -7 2 -13 -3 -13 -6 0 -11
4 -11 9 0 5 -8 8 -17 7 -10 -2 -32 3 -49 10 -17 7 -34 10 -37 7 -4 -3 -13 -1
-20 5 -8 7 -16 9 -19 7 -3 -3 -18 0 -34 6 -16 6 -38 12 -49 13 -11 1 -24 4
-30 7 -5 3 -26 6 -45 8 -19 2 -38 8 -41 13 -4 6 -14 8 -22 5 -9 -3 -17 -1 -20
6 -2 6 -6 4 -10 -6 -4 -12 -1 -17 11 -17 10 0 27 -7 38 -15 10 -8 27 -15 37
-15 11 0 15 -4 11 -12 -4 -6 -3 -8 3 -5 5 3 24 -3 42 -14 18 -11 30 -15 26 -9
-8 14 37 -10 47 -25 4 -5 8 -7 8 -2 0 4 13 1 29 -7 16 -9 31 -12 35 -9 3 4 6
1 6 -5 0 -7 8 -12 18 -12 9 0 30 -7 45 -15 18 -9 25 -10 20 -2 -5 8 -2 8 9 -1
9 -7 32 -14 51 -15 19 -1 33 -5 30 -9 -2 -5 12 -8 31 -8 20 0 36 -5 36 -11 0
-6 9 -8 20 -4 13 4 20 2 20 -7 0 -10 3 -9 10 2 6 9 10 10 10 3 0 -6 12 -11 28
-11 35 0 55 -5 64 -17 5 -6 8 -5 8 3 0 8 5 10 13 5 16 -11 127 -12 127 -1 0 4
5 8 11 8 5 0 7 -4 4 -10 -3 -5 -1 -10 4 -10 6 0 11 4 11 8 0 4 8 8 18 8 17 1
86 10 113 16 8 2 17 7 20 11 4 5 18 10 33 10 14 1 26 5 26 10 0 4 5 7 11 7 8
0 8 -4 1 -12 -5 -7 -10 -45 -10 -85 0 -63 2 -73 19 -78 11 -4 16 -11 13 -17
-4 -6 -2 -8 4 -5 11 8 11 25 -1 44 -4 6 -3 14 3 18 5 3 10 11 10 16 0 6 -5 7
-11 4 -6 -4 -5 2 3 14 15 25 31 22 37 -5 3 -19 52 -67 59 -59 2 2 15 0 28 -5
14 -6 26 -6 29 1 4 5 10 7 15 4 5 -3 11 -1 15 5 4 6 10 8 15 5 5 -3 11 -1 14
4 4 5 17 8 31 6 14 -1 25 1 25 6 0 8 13 6 56 -6 19 -6 24 -2 52 58 2 4 0 7 -5
6 -4 -1 -23 -1 -41 0 -30 1 -32 3 -18 16 18 19 61 21 50 3 -5 -8 0 -7 11 2 17
13 18 13 10 0 -4 -8 4 -4 18 9 15 14 27 30 27 37 0 6 7 17 15 24 8 7 15 21 15
31 0 16 -8 19 -41 19 -22 0 -38 4 -35 8 3 5 -1 9 -9 9 -8 0 -11 -5 -8 -11 3
-6 0 -5 -8 2 -7 6 -27 12 -44 12 -17 0 -37 6 -44 13 -11 10 -12 9 -6 -3 8 -13
7 -13 -10 0 -10 8 -21 14 -24 12 -8 -5 -19 31 -13 42 3 5 0 6 -6 2 -7 -4 -12
-2 -12 3 0 6 -9 11 -19 11 -11 0 -21 5 -23 11 -2 6 -34 11 -75 12 -59 2 -70 4
-64 17 14 27 13 101 -1 117 -7 9 -11 17 -9 17 3 1 0 10 -6 20 -10 18 -12 18
-26 -10z m128 -223 c-3 -5 5 -11 17 -13 27 -4 36 -28 10 -28 -23 0 -46 25 -37
40 3 5 8 10 11 10 3 0 3 -4 -1 -9z"/>
<path d="M1790 2269 c0 -17 4 -28 9 -24 5 3 12 -3 15 -13 11 -33 100 -102 131
-102 9 0 14 -4 11 -9 -4 -5 2 -8 11 -6 10 1 27 -2 38 -8 11 -6 29 -11 40 -12
11 0 26 -4 33 -8 7 -5 12 -3 12 5 0 11 2 11 9 0 4 -7 12 -12 17 -11 5 1 11 0
14 -1 3 -1 12 -3 20 -5 8 -1 20 -4 25 -5 18 -4 68 0 64 5 -3 2 -14 6 -25 8
-10 2 -26 6 -34 9 -8 3 -42 13 -75 24 -33 10 -63 23 -67 29 -5 6 -8 4 -8 -5 0
-9 -3 -11 -8 -4 -4 5 -40 26 -79 45 -40 18 -73 37 -73 42 0 4 -7 7 -16 7 -8 0
-14 3 -12 8 2 4 -9 19 -24 34 l-28 27 0 -30z"/>
<path d="M908 2165 c-3 -3 -61 -8 -129 -10 -130 -6 -154 -8 -179 -18 -8 -4
-26 -8 -40 -9 -14 -2 -29 -6 -35 -9 -5 -4 -18 -5 -28 -4 -9 2 -15 0 -12 -5 2
-4 -9 -10 -25 -14 -17 -3 -49 -14 -72 -24 -66 -29 -82 -35 -91 -34 -4 1 -7 -4
-7 -12 0 -10 -7 -12 -23 -8 -19 5 -20 3 -9 -10 13 -16 52 -14 52 3 0 5 3 8 7
7 15 -3 98 14 109 23 7 6 16 9 20 8 5 -1 22 -1 37 0 20 1 26 5 21 14 -6 9 -4
9 7 1 8 -6 23 -9 34 -7 29 7 288 11 300 4 18 -10 45 -8 45 3 0 7 3 8 8 1 7
-10 17 -11 107 -16 22 -1 46 -7 54 -13 12 -9 13 -8 6 3 -6 11 -5 12 6 5 15 -9
23 -11 90 -19 25 -3 56 -8 70 -11 13 -4 41 -9 62 -11 20 -3 37 -8 37 -12 0 -4
14 -6 30 -5 17 1 30 -3 30 -8 0 -6 6 -8 14 -5 7 3 19 0 25 -6 6 -6 11 -7 11
-3 0 5 8 2 17 -5 15 -12 16 -12 8 1 -6 12 -5 13 6 3 7 -7 24 -13 37 -13 15 0
21 -4 16 -12 -4 -6 -3 -8 3 -5 6 4 35 0 64 -7 30 -8 58 -12 63 -9 5 4 6 1 2
-5 -5 -8 0 -12 13 -12 27 0 25 0 63 -11 38 -12 76 -20 101 -22 9 -1 17 -5 17
-10 0 -5 6 -7 13 -4 8 3 20 1 28 -3 8 -6 16 -4 21 3 5 8 8 6 8 -7 0 -14 3 -16
13 -7 8 6 16 8 20 5 13 -14 76 -21 88 -10 9 8 10 8 5 -1 -8 -14 4 -16 62 -14
18 0 31 -3 28 -7 -2 -4 67 -7 155 -8 87 0 159 2 159 6 0 3 12 5 28 5 15 -1 32
1 37 4 6 3 12 6 15 6 24 2 100 29 100 36 0 5 8 9 18 9 21 1 99 66 90 76 -4 4
-18 0 -30 -8 -32 -20 -107 -43 -115 -35 -3 4 -11 3 -17 -2 -6 -5 -34 -11 -61
-13 -28 -2 -53 -7 -57 -13 -5 -6 -8 -6 -8 2 0 12 -17 12 -36 0 -6 -3 -14 -3
-18 1 -4 4 -26 8 -49 8 -87 3 -171 14 -212 26 -11 4 -42 9 -69 13 -27 3 -53 8
-56 10 -8 5 -68 17 -87 18 -7 0 -13 3 -13 7 0 5 -24 10 -60 12 -8 0 -20 4 -26
9 -5 5 -27 10 -48 13 -20 3 -45 11 -54 18 -13 11 -15 11 -7 -2 7 -12 6 -13 -6
-3 -8 6 -32 15 -54 19 -22 4 -43 11 -46 16 -3 5 -22 9 -42 10 -20 1 -37 6 -37
11 0 6 -2 8 -6 5 -3 -3 -37 3 -77 13 -40 10 -82 19 -94 19 -13 0 -23 4 -23 8
0 5 -18 8 -39 8 -22 -1 -37 2 -35 6 3 4 -4 7 -13 7 -10 0 -33 1 -50 1 -18 1
-33 7 -33 13 0 8 -3 7 -9 -2 -6 -8 -14 -10 -22 -5 -18 11 -33 13 -91 15 -26 1
-45 5 -43 9 3 4 -11 4 -29 0 -19 -4 -38 -4 -43 1 -5 5 -12 7 -15 4z"/>
<path d="M2240 2060 c-9 -6 -10 -10 -3 -10 6 0 15 5 18 10 8 12 4 12 -15 0z"/>
<path d="M795 2022 c-2 -2 -29 -5 -61 -7 -33 -1 -59 -4 -59 -5 0 -1 -8 -3 -18
-5 -9 -2 -15 1 -11 6 3 5 0 9 -5 9 -6 0 -11 -4 -11 -9 0 -6 -71 -18 -147 -23
-7 -1 -13 -5 -13 -9 0 -4 -8 -7 -17 -7 -10 0 -41 -9 -69 -20 -29 -11 -55 -18
-60 -14 -4 4 -4 1 0 -5 4 -8 1 -13 -8 -13 -9 0 -16 -5 -16 -11 0 -5 -4 -7 -10
-4 -5 3 -10 1 -10 -6 0 -7 -3 -9 -6 -6 -7 7 -63 -29 -76 -48 -4 -5 -8 -6 -8
-2 0 5 -21 -14 -48 -41 -62 -67 -92 -102 -85 -102 3 0 -2 -11 -11 -25 -9 -14
-13 -25 -9 -25 5 0 2 -4 -5 -9 -7 -4 -14 -22 -14 -39 -1 -17 -5 -29 -9 -26 -5
3 -8 -6 -7 -20 3 -34 10 -33 39 6 51 67 172 178 195 178 9 0 12 4 9 10 -3 5 6
12 20 16 14 3 25 9 25 13 0 9 62 41 108 56 12 4 22 11 22 16 0 5 3 8 8 7 4 -1
21 4 37 11 29 13 45 17 95 28 14 3 27 10 30 14 3 5 20 9 38 11 18 1 32 5 32 8
0 4 10 6 23 5 12 -1 36 4 53 11 17 7 34 11 37 7 4 -3 14 -2 24 2 29 12 53 13
53 1 0 -7 3 -8 8 -1 4 6 36 12 72 14 36 1 71 8 79 14 12 9 13 9 7 0 -4 -8 -2
-13 6 -13 8 0 20 6 27 13 9 7 12 8 7 0 -4 -8 17 -11 76 -12 46 -1 98 -3 116
-4 37 -4 28 15 -10 19 -13 1 -23 3 -23 4 0 1 -8 3 -18 5 -10 2 -14 -1 -11 -7
5 -7 2 -8 -7 -2 -8 4 -21 9 -29 10 -71 10 -87 13 -104 20 -14 5 -17 4 -11 -5
6 -10 3 -11 -13 -2 -14 8 -23 8 -27 1 -4 -7 -11 -8 -18 -2 -7 6 -23 10 -37 11
-14 0 -51 2 -83 3 -32 2 -60 2 -62 0z"/>
<path d="M230 1992 c0 -5 7 -9 15 -9 8 0 12 4 9 9 -3 4 -9 8 -15 8 -5 0 -9 -4
-9 -8z"/>
<path d="M995 1941 c-11 -4 -36 -7 -57 -7 -20 1 -34 -2 -32 -5 2 -3 -13 -6
-33 -7 -20 -1 -40 -7 -43 -13 -4 -6 -10 -10 -14 -9 -16 4 -86 -13 -86 -21 0
-5 -7 -9 -15 -9 -9 0 -35 -10 -58 -22 -23 -12 -45 -21 -48 -20 -4 0 -15 -8
-24 -18 -10 -11 -24 -20 -32 -20 -7 0 -13 -4 -13 -9 0 -5 -9 -11 -21 -14 -12
-3 -18 -10 -14 -17 5 -8 11 -7 22 2 8 6 24 14 36 15 12 2 25 9 29 16 6 9 8 8
8 -3 0 -10 3 -11 8 -4 7 11 50 24 90 27 12 0 22 3 22 7 0 3 12 6 28 7 76 5
123 11 128 16 3 3 17 2 30 -3 13 -5 24 -6 24 -2 0 7 43 8 76 1 5 -1 11 -1 14
1 20 7 50 9 46 2 -3 -5 1 -9 9 -9 8 0 15 4 15 9 0 5 6 6 12 2 18 -11 48 -12
48 -2 0 4 5 8 11 8 5 0 8 -4 5 -9 -3 -4 14 -9 37 -9 50 -1 67 -5 86 -16 10 -6
12 -5 7 3 -6 9 0 10 21 4 15 -4 38 -7 51 -8 12 0 22 -3 22 -6 0 -6 10 -8 68
-10 20 0 42 -4 47 -7 15 -9 69 -18 156 -26 20 -2 41 -6 45 -8 5 -3 34 -6 64
-7 30 -1 60 -7 66 -12 7 -6 15 -6 18 -1 3 5 24 6 48 1 25 -4 44 -4 46 2 2 5 9
6 15 2 19 -12 227 -10 219 2 -3 5 2 4 11 -4 12 -9 17 -10 17 -2 0 9 5 9 21 0
12 -6 19 -7 15 -1 -3 5 18 10 52 12 82 3 82 3 76 11 -2 4 6 9 18 12 13 2 6 4
-14 4 -21 0 -38 -5 -38 -11 0 -8 -3 -8 -8 0 -6 9 -27 11 -185 13 -44 1 -56 4
-51 14 6 9 5 9 -7 0 -12 -10 -18 -10 -27 -1 -9 9 -12 9 -12 -1 0 -11 -3 -11
-17 0 -15 12 -16 12 -8 -1 7 -12 6 -13 -6 -4 -8 7 -34 14 -59 18 -87 11 -115
18 -122 29 -6 9 -8 9 -8 0 0 -8 -13 -7 -47 3 -48 15 -94 25 -125 28 -10 1 -21
5 -24 9 -4 4 -20 7 -36 7 -16 0 -27 4 -24 8 3 5 -1 9 -9 9 -8 0 -12 -4 -9 -9
4 -5 -2 -5 -12 1 -30 16 -57 23 -89 25 -17 1 -35 5 -40 8 -12 7 -131 21 -192
22 -24 1 -43 5 -43 10 0 5 -7 3 -15 -4 -8 -7 -15 -8 -15 -3 0 11 -99 11 -117
0 -6 -4 -13 -3 -15 2 -1 5 -12 5 -23 2z"/>
<path d="M1342 1684 c-7 -8 -17 -12 -23 -9 -5 4 -9 1 -9 -4 0 -6 -7 -11 -16
-11 -8 0 -12 -4 -9 -10 3 -5 0 -10 -8 -10 -8 0 -18 -10 -22 -22 -4 -13 -8 -26
-10 -30 -1 -5 -3 -15 -4 -24 0 -8 -5 -13 -9 -10 -4 2 -9 -4 -10 -15 -4 -43 -6
-49 -14 -49 -4 0 -7 -3 -6 -7 2 -12 -12 -65 -22 -84 -5 -9 -12 -33 -15 -53 -4
-20 -11 -36 -15 -36 -6 0 -24 -78 -20 -89 1 -2 -3 -7 -9 -10 -6 -4 -4 -18 6
-39 l15 -32 267 3 266 2 32 28 c17 16 35 41 39 55 4 15 8 30 9 35 2 4 3 14 4
23 0 8 6 12 12 9 6 -4 9 -1 8 6 -4 22 12 89 21 89 6 0 20 47 24 82 1 3 4 10 9
14 4 4 7 18 7 31 0 15 4 22 11 17 7 -4 10 -1 7 7 -3 8 0 30 6 49 16 48 10 80
-15 80 -11 0 -18 4 -15 8 2 4 -18 9 -45 10 -35 1 -48 -2 -43 -10 5 -7 3 -8 -7
-2 -8 5 -93 9 -189 10 -97 0 -180 3 -185 6 -6 3 -16 0 -23 -8z m254 -74 c17 0
19 -31 2 -48 -7 -7 -9 -12 -5 -12 4 0 0 -16 -8 -36 -8 -20 -12 -41 -8 -47 4
-6 1 -7 -6 -3 -8 5 -11 3 -10 -5 3 -14 -6 -48 -21 -84 -18 -43 -23 -60 -21
-72 1 -7 -3 -13 -9 -13 -6 0 -9 -4 -5 -9 3 -5 1 -12 -5 -16 -6 -4 -8 -10 -6
-14 3 -4 -6 -18 -19 -29 -14 -12 -25 -18 -25 -13 0 4 -10 6 -23 4 -37 -7 -50
17 -32 59 8 20 11 38 8 42 -4 3 0 6 7 6 7 0 10 3 7 6 -3 4 -2 15 3 25 6 10 11
29 12 43 1 15 6 26 9 26 7 0 22 53 19 66 -1 4 3 10 9 13 6 4 12 19 13 34 3 36
37 78 66 80 12 1 22 6 23 12 0 5 3 4 6 -2 2 -7 11 -13 19 -13z"/>
<path d="M265 1682 c1 -2 -6 -26 -16 -55 -10 -28 -19 -60 -19 -69 0 -10 -5
-18 -11 -18 -5 0 -8 -4 -5 -8 3 -5 -1 -20 -8 -33 -7 -14 -12 -33 -10 -42 1 -9
-2 -15 -7 -11 -5 3 -9 -6 -9 -20 0 -14 -5 -26 -11 -26 -5 0 -8 -4 -5 -8 4 -7
-16 -76 -41 -142 -4 -8 -5 -19 -4 -24 1 -5 -2 -12 -7 -15 -5 -3 -12 -21 -15
-38 l-6 -33 427 0 c320 0 431 3 440 12 7 7 12 9 12 5 0 -4 8 0 19 10 26 25 55
84 52 106 -1 9 3 17 8 17 6 0 11 9 11 20 0 11 6 37 14 57 8 21 17 47 22 58 4
11 9 26 11 33 1 6 5 18 6 25 2 6 7 19 10 27 13 30 48 138 51 156 4 18 -3 20
-115 20 -65 0 -116 -3 -114 -7 3 -4 0 -9 -5 -11 -6 -2 -13 -10 -14 -18 -14
-63 -20 -80 -28 -80 -6 0 -7 -7 -4 -16 3 -9 0 -25 -8 -36 -8 -11 -12 -27 -9
-34 3 -8 0 -14 -7 -14 -7 0 -10 -7 -6 -15 3 -8 2 -15 -2 -15 -4 0 -13 -21 -20
-47 -8 -27 -17 -55 -22 -64 -5 -9 -14 -35 -20 -58 -12 -44 -36 -61 -86 -61
-24 0 -34 23 -14 35 6 4 8 11 5 16 -4 5 -2 9 3 9 5 0 9 6 10 13 2 22 7 42 15
55 5 6 6 12 3 12 -3 0 1 15 9 34 8 18 11 36 8 40 -4 3 -1 6 4 6 6 0 14 18 18
40 4 22 12 40 18 40 5 0 8 3 4 6 -3 3 7 41 23 85 15 43 25 80 22 80 -21 5
-240 4 -240 -1 1 -5 -3 -18 -33 -94 -11 -27 -17 -51 -15 -54 3 -2 -4 -20 -15
-39 -11 -19 -15 -32 -10 -29 5 4 3 -7 -5 -23 -8 -17 -17 -38 -19 -48 -2 -10
-9 -31 -15 -48 -6 -16 -13 -37 -15 -45 -13 -62 -34 -85 -82 -92 -29 -4 -33 -2
-33 18 0 13 4 25 10 29 5 3 7 12 4 19 -3 8 -1 17 5 21 6 3 11 17 11 31 0 13 5
24 10 24 6 0 10 9 10 20 0 10 9 41 19 69 11 27 17 52 14 55 -4 3 -2 6 4 6 5 0
10 7 11 15 1 8 3 22 4 30 1 8 4 15 8 15 4 0 7 6 8 13 5 41 15 76 21 73 4 -3 8
5 9 18 1 22 0 22 -123 22 -68 -1 -122 -2 -120 -4z"/>
<path d="M1991 1676 c-7 -8 -15 -30 -18 -50 -3 -20 -10 -36 -14 -36 -5 0 -9
-8 -9 -17 0 -10 -7 -31 -15 -46 -8 -15 -10 -25 -4 -21 7 4 7 0 0 -12 -19 -36
-50 -132 -44 -138 4 -3 0 -6 -7 -6 -7 0 -11 -3 -7 -6 3 -4 0 -19 -8 -34 -8
-15 -11 -30 -8 -34 4 -3 2 -6 -4 -6 -10 0 -11 -6 -14 -55 -1 -15 -6 -22 -13
-18 -14 8 13 -27 33 -44 19 -17 501 -19 501 -2 0 5 4 8 9 4 17 -10 62 42 68
80 3 21 9 32 13 25 4 -7 9 3 12 23 3 29 1 35 -14 34 -10 -1 -18 -5 -18 -10 0
-4 -6 -5 -12 0 -20 12 -88 11 -81 -1 4 -6 -1 -5 -10 3 -13 10 -17 10 -17 1 0
-8 -4 -9 -12 -3 -15 11 -28 11 -47 -1 -10 -7 -12 -6 -6 3 6 10 3 11 -13 2 -13
-7 -23 -26 -27 -51 -7 -41 -13 -45 -75 -52 -33 -4 -38 28 -14 91 10 25 17 52
16 59 -2 6 1 12 6 12 5 0 9 7 10 15 1 8 3 22 4 30 1 8 5 15 10 15 5 0 8 6 7
13 -1 6 0 19 4 27 3 8 13 38 22 65 9 28 21 58 26 67 5 10 9 26 9 36 0 10 6 24
13 31 10 11 10 13 0 7 -7 -4 -13 -2 -13 3 0 6 -9 11 -20 11 -11 0 -20 -6 -20
-12 0 -9 -3 -9 -8 -3 -10 15 -145 16 -154 2 -6 -9 -8 -9 -8 1 0 16 -15 15 -29
-2z"/>
<path d="M2710 1680 c0 -4 -11 -11 -25 -14 -14 -4 -31 -18 -37 -31 -6 -14 -15
-25 -20 -25 -4 0 -8 -14 -8 -31 0 -17 -4 -28 -10 -24 -9 6 -14 -14 -11 -42 1
-7 -2 -13 -7 -13 -5 0 -8 -11 -7 -25 2 -14 -1 -23 -6 -19 -5 3 -9 -6 -9 -20 0
-14 -5 -28 -10 -31 -6 -4 -8 -11 -5 -16 4 -5 1 -9 -6 -9 -7 0 -10 -3 -7 -6 7
-6 -20 -93 -35 -111 -5 -7 -6 -13 -1 -13 5 0 2 -5 -6 -10 -13 -8 -13 -10 0
-10 11 0 11 -3 2 -12 -7 -7 -12 -20 -12 -30 0 -10 -4 -18 -8 -18 -5 0 -9 -6
-9 -14 0 -11 25 -14 127 -15 124 -1 128 -1 135 21 14 44 16 53 17 66 1 6 5 12
9 12 5 0 6 7 3 15 -4 8 -1 15 5 15 6 0 10 3 10 8 -1 4 0 9 1 12 1 3 3 14 5 25
2 10 9 29 16 42 11 21 19 22 103 23 125 0 121 -1 123 36 l3 33 -78 -1 c-115 0
-122 1 -122 17 0 8 5 15 10 15 6 0 10 11 10 25 0 14 5 25 11 25 6 0 8 8 5 18
-8 26 25 61 59 63 57 3 64 1 58 -23 -2 -13 -5 -31 -5 -41 1 -9 -3 -15 -7 -13
-4 3 -8 0 -8 -7 0 -9 35 -12 127 -13 l127 0 17 45 c22 64 21 102 -4 108 -11 3
-18 8 -16 12 3 4 -87 7 -199 7 -133 1 -202 -3 -198 -9 4 -6 1 -7 -8 -1 -17 11
-99 14 -99 4z"/>
<path d="M323 1047 c-11 -17 -12 -128 -2 -121 5 3 9 0 9 -5 0 -6 9 -11 19 -11
20 0 30 17 32 53 1 17 3 15 8 -7 7 -33 41 -59 48 -38 3 6 9 10 14 6 5 -3 9 4
9 16 0 12 5 31 11 42 8 16 8 19 -1 13 -7 -4 -4 5 6 20 14 22 15 28 4 35 -14 9
-40 -10 -40 -29 0 -6 -5 -11 -11 -11 -5 0 -8 4 -5 9 10 16 -5 39 -22 37 -9 -2
-18 -13 -20 -24 -2 -13 -11 -22 -20 -22 -15 0 -15 2 -2 10 11 7 11 10 2 10 -7
0 -11 4 -8 9 3 5 -1 11 -9 15 -8 3 -18 0 -22 -7z"/>
<path d="M646 1048 c3 -4 0 -8 -6 -8 -6 0 -9 -4 -5 -9 3 -5 1 -12 -5 -16 -5
-3 -10 -15 -10 -26 0 -10 -4 -19 -8 -19 -4 0 -13 -13 -19 -30 -13 -35 -3 -39
43 -16 24 13 29 13 39 0 25 -34 54 17 31 54 -4 7 -2 12 5 12 9 0 9 4 -1 15 -6
8 -9 19 -6 24 4 5 1 13 -6 18 -18 10 -58 12 -52 1z m16 -80 c-7 -7 -10 -5 -7
8 5 29 6 30 12 16 3 -8 1 -18 -5 -24z"/>
<path d="M853 1043 c-6 -16 6 -35 17 -28 5 3 8 -8 7 -25 -1 -16 -5 -30 -8 -30
-3 0 -5 -10 -4 -22 2 -25 39 -34 41 -10 1 6 3 13 4 15 1 1 3 14 4 30 2 15 6
31 10 35 7 7 11 8 36 11 7 1 8 7 2 17 -11 21 -102 26 -109 7z"/>
<path d="M1107 1052 c-16 -3 -23 -32 -18 -71 2 -7 -2 -11 -6 -8 -5 3 -9 -8 -9
-26 1 -31 3 -32 49 -35 41 -3 47 -1 47 16 0 12 -7 19 -17 19 -43 0 -47 3 -27
17 15 11 22 12 33 3 12 -9 13 -9 7 1 -5 8 -1 12 11 12 15 0 16 2 3 10 -8 5
-23 7 -32 4 -19 -6 -23 4 -10 21 9 13 35 18 27 5 -3 -6 0 -7 9 -4 9 3 16 14
16 24 0 17 -31 22 -83 12z"/>
<path d="M1329 1039 c-5 -10 -9 -36 -9 -59 0 -23 -4 -39 -9 -36 -5 4 -7 -3 -4
-14 7 -25 36 -22 43 5 6 20 29 28 31 10 1 -17 20 -35 36 -35 11 0 14 7 10 27
-3 15 0 37 6 48 6 11 12 25 13 32 6 36 -99 55 -117 22z m71 -29 c0 -18 -36
-24 -46 -8 -4 7 -2 8 4 4 7 -4 12 -1 12 7 0 7 7 14 15 14 8 0 15 -8 15 -17z"/>
<path d="M1625 1050 c2 -4 -6 -6 -18 -6 -19 1 -22 -4 -22 -34 0 -28 4 -35 18
-33 10 0 16 -1 13 -5 -3 -3 2 -11 12 -19 16 -14 16 -14 -3 -8 -11 4 -24 9 -30
11 -5 2 -16 0 -24 -5 -12 -8 -13 -12 -1 -26 14 -16 90 -19 90 -2 0 4 5 5 10 2
6 -3 10 -3 11 2 0 4 2 18 3 30 2 21 -24 41 -46 35 -3 -1 -9 5 -12 13 -3 9 0
15 8 15 8 0 16 -4 18 -9 2 -5 14 -4 28 1 23 9 24 10 8 22 -10 7 -16 15 -13 18
3 2 -8 5 -25 5 -16 0 -27 -3 -25 -7z"/>
<path d="M1837 1048 c-15 -8 -16 -12 -5 -26 11 -13 11 -14 -1 -7 -11 6 -13 4
-8 -7 3 -9 3 -19 0 -22 -4 -3 -7 -22 -8 -41 -1 -43 26 -49 44 -9 8 18 18 25
34 23 29 -4 47 8 47 32 0 10 6 19 13 19 8 0 7 4 -3 10 -8 5 -11 10 -5 10 5 0
5 4 -1 10 -15 15 -74 20 -74 6 0 -8 -3 -7 -8 1 -5 8 -13 8 -25 1z m56 -55
c-13 -10 -18 -10 -25 0 -4 7 -1 17 9 24 13 10 18 10 25 0 4 -7 1 -17 -9 -24z"/>
<path d="M2096 1044 c-9 -6 -18 -28 -22 -50 -3 -21 -8 -41 -10 -43 -2 -2 1
-12 7 -22 8 -15 20 -19 55 -17 38 1 47 5 55 25 5 14 6 29 3 35 -5 7 -2 8 6 3
8 -5 11 -3 8 6 -3 8 -1 24 3 37 6 16 5 22 -6 22 -8 0 -15 3 -15 8 0 11 -67 9
-84 -4z m50 -37 c12 -3 4 -50 -9 -59 -18 -11 -28 2 -23 30 2 15 5 34 5 42 1
12 3 12 10 2 4 -8 12 -14 17 -15z"/>
<path d="M2350 1050 c-7 -4 -16 -37 -23 -90 -2 -8 -7 -21 -11 -29 -6 -10 -5
-12 2 -7 7 4 12 2 12 -3 0 -6 6 -11 14 -11 16 0 29 27 20 41 -3 5 1 9 8 9 7 0
18 -10 23 -22 6 -13 19 -24 29 -26 16 -4 18 0 13 27 -4 18 -1 35 6 43 18 20
19 37 2 61 -8 12 -15 16 -15 9 0 -6 -5 -12 -11 -12 -5 0 -8 4 -5 9 6 9 -49 10
-64 1z m60 -46 c0 -14 -21 -19 -33 -7 -9 9 13 34 24 27 5 -3 9 -12 9 -20z"/>
<path d="M2594 1051 c-2 -2 -4 -14 -4 -25 0 -17 2 -18 9 -7 8 12 11 9 17 -13
4 -16 3 -31 -2 -35 -13 -9 -17 -48 -5 -55 21 -14 39 7 45 54 4 27 12 52 18 56
7 4 8 3 4 -4 -5 -8 -2 -10 8 -6 18 7 21 30 6 39 -6 4 -18 1 -27 -7 -9 -7 -14
-8 -10 -2 4 8 -4 11 -24 10 -17 0 -32 -3 -35 -5z"/>
<path d="M2850 1053 c-24 -5 -40 -56 -23 -72 8 -7 21 -10 29 -7 9 3 12 1 9 -4
-3 -6 1 -10 9 -10 10 0 13 -6 9 -17 -4 -11 -8 -13 -11 -5 -2 7 -8 10 -13 6 -5
-3 -9 0 -9 5 0 6 -8 11 -18 11 -20 0 -26 -30 -8 -42 16 -11 64 -10 87 2 26 14
27 70 1 70 -10 0 -26 6 -36 13 -17 12 -17 14 -2 20 9 4 16 2 16 -2 0 -13 25
-20 40 -11 21 13 -4 43 -36 45 -16 0 -36 -1 -44 -2z"/>
</g>
</svg>
